<mxfile host="app.diagrams.net" modified="2024-05-20T14:41:35.970Z" agent="Mozilla/5.0 (Windows NT 10.0; Win64; x64) AppleWebKit/537.36 (KHTML, like Gecko) Chrome/125.0.0.0 Safari/537.36" etag="vDDx3o7a7mwglNRTPaZx" version="24.4.4" type="google">
  <diagram name="Page-1" id="e7e014a7-5840-1c2e-5031-d8a46d1fe8dd">
    <mxGraphModel grid="1" page="0" gridSize="10" guides="1" tooltips="1" connect="1" arrows="1" fold="1" pageScale="1" pageWidth="1169" pageHeight="826" background="none" math="0" shadow="0">
      <root>
        <mxCell id="0" />
        <mxCell id="1" parent="0" />
        <mxCell id="2" value="購入ユーザー" style="swimlane;whiteSpace=wrap;startSize=23;" vertex="1" parent="1">
          <mxGeometry x="160.5" y="39" width="280" height="1161" as="geometry" />
        </mxCell>
        <mxCell id="jm9fpF-__gH5ew6w-gA--67" style="edgeStyle=orthogonalEdgeStyle;rounded=0;orthogonalLoop=1;jettySize=auto;html=1;entryX=0.5;entryY=0;entryDx=0;entryDy=0;" edge="1" parent="2" source="5">
          <mxGeometry relative="1" as="geometry">
            <mxPoint x="138" y="120" as="targetPoint" />
          </mxGeometry>
        </mxCell>
        <mxCell id="5" value="" style="ellipse;shape=startState;fillColor=#000000;strokeColor=none;" vertex="1" parent="2">
          <mxGeometry x="123" y="45" width="30" height="30" as="geometry" />
        </mxCell>
        <mxCell id="jm9fpF-__gH5ew6w-gA--23" value="ユーザー情報編集&lt;div&gt;ボタンを押下&lt;/div&gt;" style="rounded=1;whiteSpace=wrap;html=1;arcSize=40;" vertex="1" parent="2">
          <mxGeometry x="78" y="200" width="120" height="40" as="geometry" />
        </mxCell>
        <mxCell id="S4RZ9LufIzhShnN9GhNC-7" style="edgeStyle=orthogonalEdgeStyle;rounded=0;orthogonalLoop=1;jettySize=auto;html=1;entryX=0;entryY=0.5;entryDx=0;entryDy=0;" edge="1" parent="2" source="jm9fpF-__gH5ew6w-gA--41" target="5-VuOnmddn5Kc5zJFQEK-8">
          <mxGeometry relative="1" as="geometry">
            <Array as="points">
              <mxPoint x="40" y="740" />
              <mxPoint x="40" y="380" />
            </Array>
          </mxGeometry>
        </mxCell>
        <mxCell id="jm9fpF-__gH5ew6w-gA--41" value="&lt;font style=&quot;font-size: 12px;&quot;&gt;エラー内容を確認&lt;/font&gt;" style="rounded=1;whiteSpace=wrap;html=1;arcSize=40;" vertex="1" parent="2">
          <mxGeometry x="78" y="720" width="120" height="40" as="geometry" />
        </mxCell>
        <mxCell id="jm9fpF-__gH5ew6w-gA--69" style="edgeStyle=orthogonalEdgeStyle;rounded=0;orthogonalLoop=1;jettySize=auto;html=1;entryX=0.5;entryY=0;entryDx=0;entryDy=0;" edge="1" parent="2" source="jm9fpF-__gH5ew6w-gA--65" target="jm9fpF-__gH5ew6w-gA--68">
          <mxGeometry relative="1" as="geometry" />
        </mxCell>
        <mxCell id="jm9fpF-__gH5ew6w-gA--65" value="変更が完了したことを確認" style="rounded=1;whiteSpace=wrap;html=1;arcSize=40;" vertex="1" parent="2">
          <mxGeometry x="79" y="1001" width="120" height="40" as="geometry" />
        </mxCell>
        <mxCell id="jm9fpF-__gH5ew6w-gA--68" value="" style="ellipse;html=1;shape=endState;fillColor=#000000;strokeColor=default;" vertex="1" parent="2">
          <mxGeometry x="124" y="1090" width="30" height="30" as="geometry" />
        </mxCell>
        <mxCell id="8I3BG0zYxxP-uITHRNjk-15" style="edgeStyle=orthogonalEdgeStyle;rounded=0;orthogonalLoop=1;jettySize=auto;html=1;entryX=0.5;entryY=0;entryDx=0;entryDy=0;" edge="1" parent="2" source="5-VuOnmddn5Kc5zJFQEK-8" target="8I3BG0zYxxP-uITHRNjk-14">
          <mxGeometry relative="1" as="geometry" />
        </mxCell>
        <mxCell id="5-VuOnmddn5Kc5zJFQEK-8" value="&lt;font style=&quot;font-size: 12px;&quot;&gt;ユーザー情報を編集&lt;/font&gt;" style="rounded=1;whiteSpace=wrap;html=1;arcSize=40;" vertex="1" parent="2">
          <mxGeometry x="79" y="360" width="120" height="40" as="geometry" />
        </mxCell>
        <mxCell id="8I3BG0zYxxP-uITHRNjk-14" value="&lt;font style=&quot;font-size: 12px;&quot;&gt;更新ボタンを押下&lt;/font&gt;" style="rounded=1;whiteSpace=wrap;html=1;arcSize=40;" vertex="1" parent="2">
          <mxGeometry x="79" y="441" width="120" height="40" as="geometry" />
        </mxCell>
        <mxCell id="oGgE6BPkTQQrbd6ZKPKa-6" value="個人情報" style="rounded=1;whiteSpace=wrap;html=1;arcSize=40;" vertex="1" parent="2">
          <mxGeometry x="80" y="121" width="120" height="40" as="geometry" />
        </mxCell>
        <mxCell id="3" value="ECサイト画面" style="swimlane;whiteSpace=wrap;startSize=23;" vertex="1" parent="1">
          <mxGeometry x="441.5" y="39" width="280" height="1161" as="geometry" />
        </mxCell>
        <mxCell id="jm9fpF-__gH5ew6w-gA--26" value="&lt;span style=&quot;font-size: 11px;&quot;&gt;ユーザー情報編集画面を表示&lt;/span&gt;" style="rounded=1;whiteSpace=wrap;html=1;arcSize=40;" vertex="1" parent="3">
          <mxGeometry x="77.75" y="281" width="120" height="40" as="geometry" />
        </mxCell>
        <mxCell id="jm9fpF-__gH5ew6w-gA--40" value="&lt;font style=&quot;font-size: 12px;&quot;&gt;エラー内容を表示&lt;/font&gt;" style="rounded=1;whiteSpace=wrap;html=1;arcSize=40;" vertex="1" parent="3">
          <mxGeometry x="78.75" y="721" width="120" height="40" as="geometry" />
        </mxCell>
        <mxCell id="jm9fpF-__gH5ew6w-gA--64" value="&lt;font style=&quot;font-size: 11px;&quot;&gt;マイページに&lt;/font&gt;&lt;div style=&quot;font-size: 11px;&quot;&gt;&lt;font style=&quot;font-size: 11px;&quot;&gt;変更完了の&lt;/font&gt;&lt;/div&gt;&lt;div style=&quot;font-size: 11px;&quot;&gt;&lt;font style=&quot;font-size: 11px;&quot;&gt;メッセージを表示&lt;/font&gt;&lt;/div&gt;" style="rounded=1;whiteSpace=wrap;html=1;arcSize=40;" vertex="1" parent="3">
          <mxGeometry x="78.75" y="1001" width="120" height="40" as="geometry" />
        </mxCell>
        <mxCell id="A3Edsd41Y0O4viAVBODO-5" value="&lt;span style=&quot;font-size: 11px;&quot;&gt;APIリクエストを送信&lt;/span&gt;" style="rounded=1;whiteSpace=wrap;html=1;arcSize=40;" vertex="1" parent="3">
          <mxGeometry x="78.75" y="601" width="120" height="40" as="geometry" />
        </mxCell>
        <mxCell id="8I3BG0zYxxP-uITHRNjk-9" style="edgeStyle=orthogonalEdgeStyle;rounded=0;orthogonalLoop=1;jettySize=auto;html=1;entryX=0.5;entryY=0;entryDx=0;entryDy=0;" edge="1" parent="3" source="8I3BG0zYxxP-uITHRNjk-6" target="8I3BG0zYxxP-uITHRNjk-7">
          <mxGeometry relative="1" as="geometry" />
        </mxCell>
        <mxCell id="8I3BG0zYxxP-uITHRNjk-6" value="&lt;span style=&quot;font-size: 11px;&quot;&gt;入力値の&lt;/span&gt;&lt;div&gt;&lt;span style=&quot;font-size: 11px;&quot;&gt;バリデーション&lt;/span&gt;&lt;/div&gt;" style="rounded=1;whiteSpace=wrap;html=1;arcSize=40;" vertex="1" parent="3">
          <mxGeometry x="78.75" y="441" width="120" height="40" as="geometry" />
        </mxCell>
        <mxCell id="8I3BG0zYxxP-uITHRNjk-10" style="edgeStyle=orthogonalEdgeStyle;rounded=0;orthogonalLoop=1;jettySize=auto;html=1;entryX=0.5;entryY=0;entryDx=0;entryDy=0;" edge="1" parent="3" source="8I3BG0zYxxP-uITHRNjk-7" target="A3Edsd41Y0O4viAVBODO-5">
          <mxGeometry relative="1" as="geometry" />
        </mxCell>
        <mxCell id="8I3BG0zYxxP-uITHRNjk-11" style="edgeStyle=orthogonalEdgeStyle;rounded=0;orthogonalLoop=1;jettySize=auto;html=1;entryX=0.5;entryY=0;entryDx=0;entryDy=0;" edge="1" parent="3" source="8I3BG0zYxxP-uITHRNjk-7" target="jm9fpF-__gH5ew6w-gA--40">
          <mxGeometry relative="1" as="geometry">
            <Array as="points">
              <mxPoint x="38" y="541" />
              <mxPoint x="38" y="681" />
              <mxPoint x="139" y="681" />
            </Array>
          </mxGeometry>
        </mxCell>
        <mxCell id="8I3BG0zYxxP-uITHRNjk-7" value="" style="rhombus;whiteSpace=wrap;html=1;" vertex="1" parent="3">
          <mxGeometry x="109.25" y="521" width="59" height="40" as="geometry" />
        </mxCell>
        <mxCell id="8I3BG0zYxxP-uITHRNjk-12" value="適正な値である場合" style="text;html=1;align=center;verticalAlign=middle;whiteSpace=wrap;rounded=0;" vertex="1" parent="3">
          <mxGeometry x="148.5" y="561" width="110" height="30" as="geometry" />
        </mxCell>
        <mxCell id="8I3BG0zYxxP-uITHRNjk-13" value="不正な値である場合" style="text;html=1;align=center;verticalAlign=middle;whiteSpace=wrap;rounded=0;" vertex="1" parent="3">
          <mxGeometry y="511" width="110" height="30" as="geometry" />
        </mxCell>
        <mxCell id="jm9fpF-__gH5ew6w-gA--10" value="APIサーバー" style="swimlane;whiteSpace=wrap;startSize=23;" vertex="1" parent="1">
          <mxGeometry x="721.5" y="39" width="280" height="1161" as="geometry" />
        </mxCell>
        <mxCell id="jm9fpF-__gH5ew6w-gA--48" style="edgeStyle=orthogonalEdgeStyle;rounded=0;orthogonalLoop=1;jettySize=auto;html=1;entryX=0.5;entryY=0;entryDx=0;entryDy=0;" edge="1" parent="jm9fpF-__gH5ew6w-gA--10" source="jm9fpF-__gH5ew6w-gA--45" target="jm9fpF-__gH5ew6w-gA--47">
          <mxGeometry relative="1" as="geometry" />
        </mxCell>
        <mxCell id="jm9fpF-__gH5ew6w-gA--45" value="&lt;span style=&quot;font-size: 11px;&quot;&gt;入力値の&lt;/span&gt;&lt;div&gt;&lt;span style=&quot;font-size: 11px;&quot;&gt;バリデーション&lt;/span&gt;&lt;/div&gt;" style="rounded=1;whiteSpace=wrap;html=1;arcSize=40;" vertex="1" parent="jm9fpF-__gH5ew6w-gA--10">
          <mxGeometry x="78.75" y="601" width="120" height="40" as="geometry" />
        </mxCell>
        <mxCell id="jm9fpF-__gH5ew6w-gA--51" style="edgeStyle=orthogonalEdgeStyle;rounded=0;orthogonalLoop=1;jettySize=auto;html=1;entryX=0.5;entryY=0;entryDx=0;entryDy=0;" edge="1" parent="jm9fpF-__gH5ew6w-gA--10" source="jm9fpF-__gH5ew6w-gA--47" target="jm9fpF-__gH5ew6w-gA--49">
          <mxGeometry relative="1" as="geometry" />
        </mxCell>
        <mxCell id="jm9fpF-__gH5ew6w-gA--53" style="edgeStyle=orthogonalEdgeStyle;rounded=0;orthogonalLoop=1;jettySize=auto;html=1;entryX=1;entryY=0.5;entryDx=0;entryDy=0;" edge="1" parent="jm9fpF-__gH5ew6w-gA--10" source="jm9fpF-__gH5ew6w-gA--47" target="jm9fpF-__gH5ew6w-gA--50">
          <mxGeometry relative="1" as="geometry">
            <Array as="points">
              <mxPoint x="218" y="741" />
              <mxPoint x="218" y="901" />
            </Array>
          </mxGeometry>
        </mxCell>
        <mxCell id="jm9fpF-__gH5ew6w-gA--47" value="" style="rhombus;whiteSpace=wrap;html=1;" vertex="1" parent="jm9fpF-__gH5ew6w-gA--10">
          <mxGeometry x="109.25" y="721" width="59" height="40" as="geometry" />
        </mxCell>
        <mxCell id="jm9fpF-__gH5ew6w-gA--49" value="&lt;font style=&quot;font-size: 12px;&quot;&gt;エラーを返却&lt;/font&gt;" style="rounded=1;whiteSpace=wrap;html=1;arcSize=40;" vertex="1" parent="jm9fpF-__gH5ew6w-gA--10">
          <mxGeometry x="78.75" y="801" width="120" height="40" as="geometry" />
        </mxCell>
        <mxCell id="jm9fpF-__gH5ew6w-gA--50" value="ユーザー情報を変更" style="rounded=1;whiteSpace=wrap;html=1;arcSize=40;" vertex="1" parent="jm9fpF-__gH5ew6w-gA--10">
          <mxGeometry x="78.75" y="881" width="120" height="40" as="geometry" />
        </mxCell>
        <mxCell id="jm9fpF-__gH5ew6w-gA--54" value="適正な値である場合" style="text;html=1;align=center;verticalAlign=middle;whiteSpace=wrap;rounded=0;" vertex="1" parent="jm9fpF-__gH5ew6w-gA--10">
          <mxGeometry x="167.25" y="711" width="110" height="30" as="geometry" />
        </mxCell>
        <mxCell id="jm9fpF-__gH5ew6w-gA--55" value="不正な値である場合" style="text;html=1;align=center;verticalAlign=middle;whiteSpace=wrap;rounded=0;" vertex="1" parent="jm9fpF-__gH5ew6w-gA--10">
          <mxGeometry x="18.5" y="761" width="110" height="30" as="geometry" />
        </mxCell>
        <mxCell id="jm9fpF-__gH5ew6w-gA--59" value="&lt;span style=&quot;font-size: 11px;&quot;&gt;変更完了のレスポンス&lt;/span&gt;&lt;div&gt;&lt;span style=&quot;font-size: 11px;&quot;&gt;を返却&lt;/span&gt;&lt;/div&gt;" style="rounded=1;whiteSpace=wrap;html=1;arcSize=40;" vertex="1" parent="jm9fpF-__gH5ew6w-gA--10">
          <mxGeometry x="78.75" y="1001" width="120" height="40" as="geometry" />
        </mxCell>
        <mxCell id="jm9fpF-__gH5ew6w-gA--15" value="データベース" style="swimlane;whiteSpace=wrap;startSize=23;" vertex="1" parent="1">
          <mxGeometry x="1001.5" y="39" width="280" height="1161" as="geometry" />
        </mxCell>
        <mxCell id="S4RZ9LufIzhShnN9GhNC-9" style="edgeStyle=orthogonalEdgeStyle;rounded=0;orthogonalLoop=1;jettySize=auto;html=1;entryX=0.5;entryY=0;entryDx=0;entryDy=0;" edge="1" parent="jm9fpF-__gH5ew6w-gA--15" source="jm9fpF-__gH5ew6w-gA--19" target="S4RZ9LufIzhShnN9GhNC-8">
          <mxGeometry relative="1" as="geometry" />
        </mxCell>
        <mxCell id="jm9fpF-__gH5ew6w-gA--19" value="&lt;font style=&quot;font-size: 12px;&quot;&gt;ユーザー情報を更新&lt;/font&gt;" style="rounded=1;whiteSpace=wrap;html=1;arcSize=40;" vertex="1" parent="jm9fpF-__gH5ew6w-gA--15">
          <mxGeometry x="79" y="921" width="120" height="40" as="geometry" />
        </mxCell>
        <mxCell id="S4RZ9LufIzhShnN9GhNC-8" value="&lt;span style=&quot;font-size: 11px;&quot;&gt;変更完了のレスポンス&lt;/span&gt;&lt;div&gt;&lt;span style=&quot;font-size: 11px;&quot;&gt;を返却&lt;/span&gt;&lt;/div&gt;" style="rounded=1;whiteSpace=wrap;html=1;arcSize=40;" vertex="1" parent="jm9fpF-__gH5ew6w-gA--15">
          <mxGeometry x="79" y="1001" width="120" height="40" as="geometry" />
        </mxCell>
        <mxCell id="jm9fpF-__gH5ew6w-gA--27" style="edgeStyle=orthogonalEdgeStyle;rounded=0;orthogonalLoop=1;jettySize=auto;html=1;entryX=0;entryY=0.5;entryDx=0;entryDy=0;" edge="1" parent="1" source="jm9fpF-__gH5ew6w-gA--23" target="jm9fpF-__gH5ew6w-gA--26">
          <mxGeometry relative="1" as="geometry">
            <Array as="points">
              <mxPoint x="300" y="340" />
            </Array>
          </mxGeometry>
        </mxCell>
        <mxCell id="jm9fpF-__gH5ew6w-gA--43" style="edgeStyle=orthogonalEdgeStyle;rounded=0;orthogonalLoop=1;jettySize=auto;html=1;entryX=1;entryY=0.5;entryDx=0;entryDy=0;" edge="1" parent="1" source="jm9fpF-__gH5ew6w-gA--40" target="jm9fpF-__gH5ew6w-gA--41">
          <mxGeometry relative="1" as="geometry" />
        </mxCell>
        <mxCell id="jm9fpF-__gH5ew6w-gA--52" style="edgeStyle=orthogonalEdgeStyle;rounded=0;orthogonalLoop=1;jettySize=auto;html=1;entryX=0.5;entryY=1;entryDx=0;entryDy=0;" edge="1" parent="1" source="jm9fpF-__gH5ew6w-gA--49" target="jm9fpF-__gH5ew6w-gA--40">
          <mxGeometry relative="1" as="geometry" />
        </mxCell>
        <mxCell id="jm9fpF-__gH5ew6w-gA--57" style="edgeStyle=orthogonalEdgeStyle;rounded=0;orthogonalLoop=1;jettySize=auto;html=1;entryX=0;entryY=0.5;entryDx=0;entryDy=0;" edge="1" parent="1" source="jm9fpF-__gH5ew6w-gA--50" target="jm9fpF-__gH5ew6w-gA--19">
          <mxGeometry relative="1" as="geometry">
            <Array as="points">
              <mxPoint x="859" y="980" />
            </Array>
          </mxGeometry>
        </mxCell>
        <mxCell id="jm9fpF-__gH5ew6w-gA--62" style="edgeStyle=orthogonalEdgeStyle;rounded=0;orthogonalLoop=1;jettySize=auto;html=1;entryX=1;entryY=0.5;entryDx=0;entryDy=0;" edge="1" parent="1" source="jm9fpF-__gH5ew6w-gA--59">
          <mxGeometry relative="1" as="geometry">
            <mxPoint x="639.5" y="1060" as="targetPoint" />
          </mxGeometry>
        </mxCell>
        <mxCell id="jm9fpF-__gH5ew6w-gA--66" style="edgeStyle=orthogonalEdgeStyle;rounded=0;orthogonalLoop=1;jettySize=auto;html=1;entryX=1;entryY=0.5;entryDx=0;entryDy=0;" edge="1" parent="1" source="jm9fpF-__gH5ew6w-gA--64" target="jm9fpF-__gH5ew6w-gA--65">
          <mxGeometry relative="1" as="geometry" />
        </mxCell>
        <mxCell id="A3Edsd41Y0O4viAVBODO-7" style="edgeStyle=orthogonalEdgeStyle;rounded=0;orthogonalLoop=1;jettySize=auto;html=1;entryX=0;entryY=0.5;entryDx=0;entryDy=0;" edge="1" parent="1" source="A3Edsd41Y0O4viAVBODO-5" target="jm9fpF-__gH5ew6w-gA--45">
          <mxGeometry relative="1" as="geometry" />
        </mxCell>
        <mxCell id="8I3BG0zYxxP-uITHRNjk-16" style="edgeStyle=orthogonalEdgeStyle;rounded=0;orthogonalLoop=1;jettySize=auto;html=1;entryX=0;entryY=0.5;entryDx=0;entryDy=0;" edge="1" parent="1" source="8I3BG0zYxxP-uITHRNjk-14" target="8I3BG0zYxxP-uITHRNjk-6">
          <mxGeometry relative="1" as="geometry" />
        </mxCell>
        <mxCell id="S4RZ9LufIzhShnN9GhNC-6" style="edgeStyle=orthogonalEdgeStyle;rounded=0;orthogonalLoop=1;jettySize=auto;html=1;entryX=1;entryY=0.5;entryDx=0;entryDy=0;" edge="1" parent="1" source="jm9fpF-__gH5ew6w-gA--26" target="5-VuOnmddn5Kc5zJFQEK-8">
          <mxGeometry relative="1" as="geometry">
            <Array as="points">
              <mxPoint x="579" y="419" />
            </Array>
          </mxGeometry>
        </mxCell>
        <mxCell id="S4RZ9LufIzhShnN9GhNC-10" style="edgeStyle=orthogonalEdgeStyle;rounded=0;orthogonalLoop=1;jettySize=auto;html=1;entryX=1;entryY=0.5;entryDx=0;entryDy=0;" edge="1" parent="1" source="S4RZ9LufIzhShnN9GhNC-8" target="jm9fpF-__gH5ew6w-gA--59">
          <mxGeometry relative="1" as="geometry" />
        </mxCell>
      </root>
    </mxGraphModel>
  </diagram>
</mxfile>
